<?xml version="1.0" encoding="utf-8"?>
<!-- Generator: Adobe Illustrator 21.1.0, SVG Export Plug-In . SVG Version: 6.00 Build 0)  -->
<svg version="1.1" baseProfile="tiny" id="Layer_1" xmlns="http://www.w3.org/2000/svg" xmlns:xlink="http://www.w3.org/1999/xlink"
	 x="0px" y="0px" viewBox="0 0 255.1 141.7" xml:space="preserve">
<g id="Layer_2" display="none">
	<rect x="-1269" y="-814.3" display="inline" fill="#33439B" width="272.1" height="172.9"/>
	<rect x="-1541.1" y="-987.2" display="inline" fill="#7A5649" width="272.1" height="172.9"/>
	<rect x="-1269" y="-987.2" display="inline" fill="#00ADDB" width="272.1" height="172.9"/>
	<rect x="-996.9" y="-987.2" display="inline" fill="#00ADDB" width="272.1" height="172.9"/>
	<rect x="-1541.1" y="-814.3" display="inline" fill="#EB417A" width="272.1" height="172.9"/>
	<rect x="-996.9" y="-814.3" display="inline" fill="#33439B" width="272.1" height="172.9"/>
	<rect x="-1269" y="-641.4" display="inline" fill="#EB417A" width="272.1" height="172.9"/>
	<rect x="-1541.1" y="-641.4" display="inline" fill="#EB417A" width="272.1" height="172.9"/>
	<rect x="-996.9" y="-641.4" display="inline" fill="#EB417A" width="272.1" height="172.9"/>
	<rect x="-1269" y="-295.6" display="inline" fill="none" width="272.1" height="172.9"/>
	<rect x="-1541.1" y="-468.5" display="inline" fill="none" width="272.1" height="172.9"/>
	<rect x="-1269" y="-468.5" display="inline" fill="none" width="272.1" height="172.9"/>
	<rect x="-996.9" y="-468.5" display="inline" fill="none" width="272.1" height="172.9"/>
	<rect x="-1541.1" y="-295.6" display="inline" fill="none" width="272.1" height="172.9"/>
	<rect x="-996.9" y="-295.6" display="inline" fill="none" width="272.1" height="172.9"/>
	<rect x="-1269" y="-122.7" display="inline" fill="none" width="272.1" height="172.9"/>
	<rect x="-1541.1" y="-122.7" display="inline" fill="none" width="272.1" height="172.9"/>
	<rect x="-996.9" y="-122.7" display="inline" fill="none" width="272.1" height="172.9"/>
	<rect x="-1269" y="50.2" display="inline" width="272.1" height="172.9"/>
	<rect x="-1541.1" y="50.2" display="inline" fill="none" width="272.1" height="172.9"/>
	<rect x="-996.9" y="50.2" display="inline" fill="none" width="272.1" height="172.9"/>
</g>
<g>
	<rect fill="#F2F2F2" width="255.1" height="141.7"/>
	<text transform="matrix(1 0 0 0.95 16.0381 21.0433)" font-family="'Ubuntu'" font-size="8.8px">I</text>
	<text transform="matrix(1 0 0 0.95 18.4316 21.0433)" font-family="'Ubuntu'" font-size="8.8px">t</text>
	<text transform="matrix(1 0 0 0.95 21.9956 21.0433)" font-family="'Ubuntu'" font-size="8.8px">&apos;</text>
	<text transform="matrix(1 0 0 0.95 24.1426 21.0433)" font-family="'Ubuntu'" font-size="8.8px">s</text>
	<text transform="matrix(1 0 0 0.95 28.0938 21.0433)" font-family="'Ubuntu'" font-size="8.8px"> </text>
	<text transform="matrix(1 0 0 0.95 30.1528 21.0433)" font-family="'Ubuntu'" font-size="8.8px">a</text>
	<text transform="matrix(1 0 0 0.95 34.7729 21.0433)" font-family="'Ubuntu'" font-size="8.8px">l</text>
	<text transform="matrix(1 0 0 0.95 37.2017 21.0433)" font-family="'Ubuntu'" font-size="8.8px">l</text>
	<text transform="matrix(1 0 0 0.95 39.6304 21.0433)" font-family="'Ubuntu'" font-size="8.8px"> </text>
	<text transform="matrix(1 0 0 0.95 41.6895 21.0433)" font-family="'Ubuntu'" font-size="8.8px">t</text>
	<text transform="matrix(1 0 0 0.95 45.2534 21.0433)" font-family="'Ubuntu'" font-size="8.8px">h</text>
	<text transform="matrix(1 0 0 0.95 50.3047 21.0433)" font-family="'Ubuntu'" font-size="8.8px">a</text>
	<text transform="matrix(1 0 0 0.95 54.9243 21.0433)" font-family="'Ubuntu'" font-size="8.8px">t</text>
	<text transform="matrix(1 0 0 0.95 58.4883 21.0433)" font-family="'Ubuntu'" font-size="8.8px"> </text>
	<text transform="matrix(1 0 0 0.95 60.5474 21.0433)" font-family="'Ubuntu'" font-size="8.8px">t</text>
	<text transform="matrix(1 0 0 0.95 64.1113 21.0433)" font-family="'Ubuntu'" font-size="8.8px">h</text>
	<text transform="matrix(1 0 0 0.95 69.1626 21.0433)" font-family="'Ubuntu'" font-size="8.8px">e</text>
	<text transform="matrix(1 0 0 0.95 74.1084 21.0433)" font-family="'Ubuntu'" font-size="8.8px"> </text>
	<text transform="matrix(1 0 0 0.95 76.1675 21.0433)" font-family="'Ubuntu'" font-size="8.8px">b</text>
	<text transform="matrix(1 0 0 0.95 81.377 21.0433)" font-family="'Ubuntu'" font-size="8.8px">r</text>
	<text transform="matrix(1 0 0 0.95 84.7998 21.0433)" font-family="'Ubuntu'" font-size="8.8px">o</text>
	<text transform="matrix(1 0 0 0.95 89.9038 21.0433)" font-family="'Ubuntu'" font-size="8.8px">w</text>
	<text transform="matrix(1 0 0 0.95 96.7681 21.0433)" font-family="'Ubuntu'" font-size="8.8px">s</text>
	<text transform="matrix(1 0 0 0.95 100.7192 21.0433)" font-family="'Ubuntu'" font-size="8.8px">e</text>
	<text transform="matrix(1 0 0 0.95 105.6646 21.0433)" font-family="'Ubuntu'" font-size="8.8px">r</text>
	<text transform="matrix(1 0 0 0.95 109.0874 21.0433)" font-family="'Ubuntu'" font-size="8.8px"> </text>
	<text transform="matrix(1 0 0 0.95 111.1465 21.0433)" font-family="'Ubuntu'" font-size="8.8px">d</text>
	<text transform="matrix(1 0 0 0.95 116.3564 21.0433)" font-family="'Ubuntu'" font-size="8.8px">o</text>
	<text transform="matrix(1 0 0 0.95 121.5747 21.0433)" font-family="'Ubuntu'" font-size="8.8px">e</text>
	<text transform="matrix(1 0 0 0.95 126.52 21.0433)" font-family="'Ubuntu'" font-size="8.8px">s</text>
	<text transform="matrix(1 0 0 0.95 130.4717 21.0433)" font-family="'Ubuntu'" font-size="8.8px"> </text>
	<text transform="matrix(1 0 0 0.95 132.5303 21.0433)" font-family="'Ubuntu'" font-size="8.8px">t</text>
	<text transform="matrix(1 0 0 0.95 135.9707 21.0433)" font-family="'Ubuntu'" font-size="8.8px">o</text>
	<text transform="matrix(1 0 0 0.95 141.1895 21.0433)" font-family="'Ubuntu'" font-size="8.8px"> </text>
	<text transform="matrix(1 0 0 0.95 143.249 21.0433)" font-family="'Ubuntu'" font-size="8.8px">r</text>
	<text transform="matrix(1 0 0 0.95 146.6719 21.0433)" font-family="'Ubuntu'" font-size="8.8px">e</text>
	<text transform="matrix(1 0 0 0.95 151.6172 21.0433)" font-family="'Ubuntu'" font-size="8.8px">n</text>
	<text transform="matrix(1 0 0 0.95 156.6943 21.0433)" font-family="'Ubuntu'" font-size="8.8px">d</text>
	<text transform="matrix(1 0 0 0.95 161.9043 21.0433)" font-family="'Ubuntu'" font-size="8.8px">e</text>
	<text transform="matrix(1 0 0 0.95 166.8496 21.0433)" font-family="'Ubuntu'" font-size="8.8px">r</text>
	<text transform="matrix(1 0 0 0.95 170.2725 21.0433)" font-family="'Ubuntu'" font-size="8.8px"> </text>
	<text transform="matrix(1 0 0 0.95 172.332 21.0433)" font-family="'Ubuntu'" font-size="8.8px">t</text>
	<text transform="matrix(1 0 0 0.95 175.8955 21.0433)" font-family="'Ubuntu'" font-size="8.8px">h</text>
	<text transform="matrix(1 0 0 0.95 180.9473 21.0433)" font-family="'Ubuntu'" font-size="8.8px">e</text>
	<text transform="matrix(1 0 0 0.95 185.8926 21.0433)" font-family="'Ubuntu'" font-size="8.8px"> </text>
	<text transform="matrix(1 0 0 0.95 187.9512 21.0433)" font-family="'Ubuntu'" font-size="8.8px">p</text>
	<text transform="matrix(1 0 0 0.95 193.1611 21.0433)" font-family="'Ubuntu'" font-size="8.8px">a</text>
	<text transform="matrix(1 0 0 0.95 197.7812 21.0433)" font-family="'Ubuntu'" font-size="8.8px">g</text>
	<text transform="matrix(1 0 0 0.95 202.8936 21.0433)" font-family="'Ubuntu'" font-size="8.8px">e</text>
	<text transform="matrix(1 0 0 0.95 207.8389 21.0433)" font-family="'Ubuntu'" font-size="8.8px">:</text>
	<text transform="matrix(1 0 0 0.95 22.0381 32.5433)" font-family="'Ubuntu'" font-size="8.8px">•</text>
	<text transform="matrix(1 0 0 0.95 25.2324 32.5433)" font-family="'Ubuntu'" font-size="8.8px"> </text>
	<text transform="matrix(1 0 0 0.95 27.2915 32.5433)" font-family="'Ubuntu'" font-size="8.8px">R</text>
	<text transform="matrix(1 0 0 0.95 32.853 32.5433)" font-family="'Ubuntu'" font-size="8.8px">e</text>
	<text transform="matrix(1 0 0 0.95 37.7983 32.5433)" font-family="'Ubuntu'" font-size="8.8px">a</text>
	<text transform="matrix(1 0 0 0.95 42.4185 32.5433)" font-family="'Ubuntu'" font-size="8.8px">d</text>
	<text transform="matrix(1 0 0 0.95 47.6279 32.5433)" font-family="'Ubuntu'" font-size="8.8px">s</text>
	<text transform="matrix(1 0 0 0.95 51.5791 32.5433)" font-family="'Ubuntu'" font-size="8.8px"> </text>
	<text transform="matrix(1 0 0 0.95 53.6382 32.5433)" font-family="'Ubuntu'" font-size="8.8px">H</text>
	<text transform="matrix(1 0 0 0.95 59.8687 32.5433)" font-family="'Ubuntu'" font-size="8.8px">T</text>
	<text transform="matrix(1 0 0 0.95 64.8667 32.5433)" font-family="'Ubuntu'" font-size="8.8px">M</text>
	<text transform="matrix(1 0 0 0.95 72.5576 32.5433)" font-family="'Ubuntu'" font-size="8.8px">L</text>
	<text transform="matrix(1 0 0 0.95 77.1514 32.5433)" font-family="'Ubuntu'" font-size="8.8px"> </text>
	<text transform="matrix(1 0 0 0.95 79.2104 32.5433)" font-family="'Ubuntu'" font-size="8.8px">c</text>
	<text transform="matrix(1 0 0 0.95 83.3286 32.5433)" font-family="'Ubuntu'" font-size="8.8px">h</text>
	<text transform="matrix(1 0 0 0.95 88.3799 32.5433)" font-family="'Ubuntu'" font-size="8.8px">a</text>
	<text transform="matrix(1 0 0 0.95 93 32.5433)" font-family="'Ubuntu'" font-size="8.8px">r</text>
	<text transform="matrix(1 0 0 0.95 96.4229 32.5433)" font-family="'Ubuntu'" font-size="8.8px">a</text>
	<text transform="matrix(1 0 0 0.95 101.043 32.5433)" font-family="'Ubuntu'" font-size="8.8px">c</text>
	<text transform="matrix(1 0 0 0.95 105.1611 32.5433)" font-family="'Ubuntu'" font-size="8.8px">t</text>
	<text transform="matrix(1 0 0 0.95 108.6372 32.5433)" font-family="'Ubuntu'" font-size="8.8px">e</text>
	<text transform="matrix(1 0 0 0.95 113.5825 32.5433)" font-family="'Ubuntu'" font-size="8.8px">r</text>
	<text transform="matrix(1 0 0 0.95 117.0059 32.5433)" font-family="'Ubuntu'" font-size="8.8px"> </text>
	<text transform="matrix(1 0 0 0.95 119.0649 32.5433)" font-family="'Ubuntu'" font-size="8.8px">b</text>
	<text transform="matrix(1 0 0 0.95 124.1602 32.5433)" font-family="'Ubuntu'" font-size="8.8px">y</text>
	<text transform="matrix(1 0 0 0.95 128.5601 32.5433)" font-family="'Ubuntu'" font-size="8.8px"> </text>
	<text transform="matrix(1 0 0 0.95 130.6191 32.5433)" font-family="'Ubuntu'" font-size="8.8px">c</text>
	<text transform="matrix(1 0 0 0.95 134.7373 32.5433)" font-family="'Ubuntu'" font-size="8.8px">h</text>
	<text transform="matrix(1 0 0 0.95 139.7891 32.5433)" font-family="'Ubuntu'" font-size="8.8px">a</text>
	<text transform="matrix(1 0 0 0.95 144.4082 32.5433)" font-family="'Ubuntu'" font-size="8.8px">r</text>
	<text transform="matrix(1 0 0 0.95 147.832 32.5433)" font-family="'Ubuntu'" font-size="8.8px">a</text>
	<text transform="matrix(1 0 0 0.95 152.4512 32.5433)" font-family="'Ubuntu'" font-size="8.8px">c</text>
	<text transform="matrix(1 0 0 0.95 156.5703 32.5433)" font-family="'Ubuntu'" font-size="8.8px">t</text>
	<text transform="matrix(1 0 0 0.95 160.0459 32.5433)" font-family="'Ubuntu'" font-size="8.8px">e</text>
	<text transform="matrix(1 0 0 0.95 164.9912 32.5433)" font-family="'Ubuntu'" font-size="8.8px">r</text>
	<text transform="matrix(1 0 0 0.95 168.4141 32.5433)" font-family="'Ubuntu'" font-size="8.8px"> </text>
	<text transform="matrix(1 0 0 0.95 170.4736 32.5433)" font-family="'Ubuntu'" font-size="8.8px">t</text>
	<text transform="matrix(1 0 0 0.95 174.0371 32.5433)" font-family="'Ubuntu'" font-size="8.8px">u</text>
	<text transform="matrix(1 0 0 0.95 179.1152 32.5433)" font-family="'Ubuntu'" font-size="8.8px">r</text>
	<text transform="matrix(1 0 0 0.95 182.5381 32.5433)" font-family="'Ubuntu'" font-size="8.8px">n</text>
	<text transform="matrix(1 0 0 0.95 187.6152 32.5433)" font-family="'Ubuntu'" font-size="8.8px">s</text>
	<text transform="matrix(1 0 0 0.95 191.5664 32.5433)" font-family="'Ubuntu'" font-size="8.8px"> </text>
	<text transform="matrix(1 0 0 0.95 193.626 32.5433)" font-family="'Ubuntu'" font-size="8.8px">t</text>
	<text transform="matrix(1 0 0 0.95 197.1895 32.5433)" font-family="'Ubuntu'" font-size="8.8px">h</text>
	<text transform="matrix(1 0 0 0.95 202.2412 32.5433)" font-family="'Ubuntu'" font-size="8.8px">e</text>
	<text transform="matrix(1 0 0 0.95 207.1865 32.5433)" font-family="'Ubuntu'" font-size="8.8px">m</text>
	<text transform="matrix(1 0 0 0.95 214.79 32.5433)" font-family="'Ubuntu'" font-size="8.8px"> </text>
	<text transform="matrix(1 0 0 0.95 216.8486 32.5433)" font-family="'Ubuntu'" font-size="8.8px">i</text>
	<text transform="matrix(1 0 0 0.95 219.1016 32.5433)" font-family="'Ubuntu'" font-size="8.8px">n</text>
	<text transform="matrix(1 0 0 0.95 224.1787 32.5433)" font-family="'Ubuntu'" font-size="8.8px">t</text>
	<text transform="matrix(1 0 0 0.95 227.6201 32.5433)" font-family="'Ubuntu'" font-size="8.8px">o</text>
	<text transform="matrix(1 0 0 0.95 22.0381 44.0433)" font-family="'Ubuntu'" font-size="8.8px">t</text>
	<text transform="matrix(1 0 0 0.95 25.479 44.0433)" font-family="'Ubuntu'" font-size="8.8px">o</text>
	<text transform="matrix(1 0 0 0.95 30.6973 44.0433)" font-family="'Ubuntu'" font-size="8.8px">k</text>
	<text transform="matrix(1 0 0 0.95 35.0884 44.0433)" font-family="'Ubuntu'" font-size="8.8px">e</text>
	<text transform="matrix(1 0 0 0.95 40.0342 44.0433)" font-family="'Ubuntu'" font-size="8.8px">n</text>
	<text transform="matrix(1 0 0 0.95 45.1113 44.0433)" font-family="'Ubuntu'" font-size="8.8px">s</text>
	<text transform="matrix(1 0 0 0.95 49.0625 44.0433)" font-family="'Ubuntu'" font-size="8.8px">,</text>
	<text transform="matrix(1 0 0 0.95 51.2539 44.0433)" font-family="'Ubuntu'" font-size="8.8px"> </text>
	<text transform="matrix(1 0 0 0.95 53.313 44.0433)" font-family="'Ubuntu'" font-size="8.8px">t</text>
	<text transform="matrix(1 0 0 0.95 56.877 44.0433)" font-family="'Ubuntu'" font-size="8.8px">h</text>
	<text transform="matrix(1 0 0 0.95 61.9277 44.0433)" font-family="'Ubuntu'" font-size="8.8px">e</text>
	<text transform="matrix(1 0 0 0.95 66.8735 44.0433)" font-family="'Ubuntu'" font-size="8.8px">n</text>
	<text transform="matrix(1 0 0 0.95 71.9512 44.0433)" font-family="'Ubuntu'" font-size="8.8px"> </text>
	<text transform="matrix(1 0 0 0.95 74.0103 44.0433)" font-family="'Ubuntu'" font-size="8.8px">i</text>
	<text transform="matrix(1 0 0 0.95 76.2627 44.0433)" font-family="'Ubuntu'" font-size="8.8px">n</text>
	<text transform="matrix(1 0 0 0.95 81.3403 44.0433)" font-family="'Ubuntu'" font-size="8.8px">t</text>
	<text transform="matrix(1 0 0 0.95 84.7812 44.0433)" font-family="'Ubuntu'" font-size="8.8px">o</text>
	<text transform="matrix(1 0 0 0.95 89.9995 44.0433)" font-family="'Ubuntu'" font-size="8.8px"> </text>
	<text transform="matrix(1 0 0 0.95 92.0586 44.0433)" font-family="'Ubuntu'" font-size="8.8px">n</text>
	<text transform="matrix(1 0 0 0.95 97.1362 44.0433)" font-family="'Ubuntu'" font-size="8.8px">o</text>
	<text transform="matrix(1 0 0 0.95 102.3545 44.0433)" font-family="'Ubuntu'" font-size="8.8px">d</text>
	<text transform="matrix(1 0 0 0.95 107.564 44.0433)" font-family="'Ubuntu'" font-size="8.8px">e</text>
	<text transform="matrix(1 0 0 0.95 112.5093 44.0433)" font-family="'Ubuntu'" font-size="8.8px">s</text>
	<text transform="matrix(1 0 0 0.95 116.4604 44.0433)" font-family="'Ubuntu'" font-size="8.8px">,</text>
	<text transform="matrix(1 0 0 0.95 118.6519 44.0433)" font-family="'Ubuntu'" font-size="8.8px"> </text>
	<text transform="matrix(1 0 0 0.95 120.7109 44.0433)" font-family="'Ubuntu'" font-size="8.8px">t</text>
	<text transform="matrix(1 0 0 0.95 124.2749 44.0433)" font-family="'Ubuntu'" font-size="8.8px">h</text>
	<text transform="matrix(1 0 0 0.95 129.3257 44.0433)" font-family="'Ubuntu'" font-size="8.8px">e</text>
	<text transform="matrix(1 0 0 0.95 134.2715 44.0433)" font-family="'Ubuntu'" font-size="8.8px">n</text>
	<text transform="matrix(1 0 0 0.95 139.3486 44.0433)" font-family="'Ubuntu'" font-size="8.8px"> </text>
	<text transform="matrix(1 0 0 0.95 141.4082 44.0433)" font-family="'Ubuntu'" font-size="8.8px">i</text>
	<text transform="matrix(1 0 0 0.95 143.6611 44.0433)" font-family="'Ubuntu'" font-size="8.8px">n</text>
	<text transform="matrix(1 0 0 0.95 148.7383 44.0433)" font-family="'Ubuntu'" font-size="8.8px">t</text>
	<text transform="matrix(1 0 0 0.95 152.1787 44.0433)" font-family="'Ubuntu'" font-size="8.8px">o</text>
	<text transform="matrix(1 0 0 0.95 157.3975 44.0433)" font-family="'Ubuntu'" font-size="8.8px"> </text>
	<text transform="matrix(1 0 0 0.95 159.4561 44.0433)" font-family="'Ubuntu'" font-size="8.8px">D</text>
	<text transform="matrix(1 0 0 0.95 165.7568 44.0433)" font-family="'Ubuntu'" font-size="8.8px">O</text>
	<text transform="matrix(1 0 0 0.95 172.6299 44.0433)" font-family="'Ubuntu'" font-size="8.8px">M</text>
	<text transform="matrix(1 0 0 0.95 180.3213 44.0433)" font-family="'Ubuntu'" font-size="8.8px">;</text>
	<text transform="matrix(1 0 0 0.95 22.0381 55.5433)" font-family="'Ubuntu'" font-size="8.8px">•</text>
	<text transform="matrix(1 0 0 0.95 25.2324 55.5433)" font-family="'Ubuntu'" font-size="8.8px"> </text>
	<text transform="matrix(1 0 0 0.95 27.2915 55.5433)" font-family="'Ubuntu'" font-size="8.8px">T</text>
	<text transform="matrix(1 0 0 0.95 31.938 55.5433)" font-family="'Ubuntu'" font-size="8.8px">r</text>
	<text transform="matrix(1 0 0 0.95 35.3608 55.5433)" font-family="'Ubuntu'" font-size="8.8px">a</text>
	<text transform="matrix(1 0 0 0.95 39.981 55.5433)" font-family="'Ubuntu'" font-size="8.8px">n</text>
	<text transform="matrix(1 0 0 0.95 45.0581 55.5433)" font-family="'Ubuntu'" font-size="8.8px">s</text>
	<text transform="matrix(1 0 0 0.95 49.0093 55.5433)" font-family="'Ubuntu'" font-size="8.8px">f</text>
	<text transform="matrix(1 0 0 0.95 52.4326 55.5433)" font-family="'Ubuntu'" font-size="8.8px">o</text>
	<text transform="matrix(1 0 0 0.95 57.6509 55.5433)" font-family="'Ubuntu'" font-size="8.8px">r</text>
	<text transform="matrix(1 0 0 0.95 61.0737 55.5433)" font-family="'Ubuntu'" font-size="8.8px">m</text>
	<text transform="matrix(1 0 0 0.95 68.6772 55.5433)" font-family="'Ubuntu'" font-size="8.8px">s</text>
	<text transform="matrix(1 0 0 0.95 72.6284 55.5433)" font-family="'Ubuntu'" font-size="8.8px"> </text>
	<text transform="matrix(1 0 0 0.95 74.6875 55.5433)" font-family="'Ubuntu'" font-size="8.8px">C</text>
	<text transform="matrix(1 0 0 0.95 80.2578 55.5433)" font-family="'Ubuntu'" font-size="8.8px">S</text>
	<text transform="matrix(1 0 0 0.95 84.9658 55.5433)" font-family="'Ubuntu'" font-size="8.8px">S</text>
	<text transform="matrix(1 0 0 0.95 89.6733 55.5433)" font-family="'Ubuntu'" font-size="8.8px"> </text>
	<text transform="matrix(1 0 0 0.95 91.7324 55.5433)" font-family="'Ubuntu'" font-size="8.8px">i</text>
	<text transform="matrix(1 0 0 0.95 93.9854 55.5433)" font-family="'Ubuntu'" font-size="8.8px">n</text>
	<text transform="matrix(1 0 0 0.95 99.063 55.5433)" font-family="'Ubuntu'" font-size="8.8px">t</text>
	<text transform="matrix(1 0 0 0.95 102.5039 55.5433)" font-family="'Ubuntu'" font-size="8.8px">o</text>
	<text transform="matrix(1 0 0 0.95 107.7222 55.5433)" font-family="'Ubuntu'" font-size="8.8px"> </text>
	<text transform="matrix(1 0 0 0.95 109.7812 55.5433)" font-family="'Ubuntu'" font-size="8.8px">a</text>
	<text transform="matrix(1 0 0 0.95 114.4009 55.5433)" font-family="'Ubuntu'" font-size="8.8px"> </text>
	<text transform="matrix(1 0 0 0.95 116.46 55.5433)" font-family="'Ubuntu'" font-size="8.8px">C</text>
	<text transform="matrix(1 0 0 0.95 122.0303 55.5433)" font-family="'Ubuntu'" font-size="8.8px">S</text>
	<text transform="matrix(1 0 0 0.95 126.7383 55.5433)" font-family="'Ubuntu'" font-size="8.8px">S</text>
	<text transform="matrix(1 0 0 0.95 131.4463 55.5433)" font-family="'Ubuntu'" font-size="8.8px">O</text>
	<text transform="matrix(1 0 0 0.95 138.3193 55.5433)" font-family="'Ubuntu'" font-size="8.8px">M</text>
	<text transform="matrix(1 0 0 0.95 146.0098 55.5433)" font-family="'Ubuntu'" font-size="8.8px"> </text>
	<text transform="matrix(1 0 0 0.95 148.0693 55.5433)" font-family="'Ubuntu'" font-size="8.8px">t</text>
	<text transform="matrix(1 0 0 0.95 151.6328 55.5433)" font-family="'Ubuntu'" font-size="8.8px">r</text>
	<text transform="matrix(1 0 0 0.95 155.0566 55.5433)" font-family="'Ubuntu'" font-size="8.8px">e</text>
	<text transform="matrix(1 0 0 0.95 160.002 55.5433)" font-family="'Ubuntu'" font-size="8.8px">e</text>
	<text transform="matrix(1 0 0 0.95 164.9473 55.5433)" font-family="'Ubuntu'" font-size="8.8px">;</text>
	<text transform="matrix(1 0 0 0.95 22.0381 67.0433)" font-family="'Ubuntu'" font-size="8.8px">•</text>
	<text transform="matrix(1 0 0 0.95 25.2324 67.0433)" font-family="'Ubuntu'" font-size="8.8px"> </text>
	<text transform="matrix(1 0 0 0.95 27.2915 67.0433)" font-family="'Ubuntu'" font-size="8.8px">C</text>
	<text transform="matrix(1 0 0 0.95 32.7739 67.0433)" font-family="'Ubuntu'" font-size="8.8px">r</text>
	<text transform="matrix(1 0 0 0.95 36.1968 67.0433)" font-family="'Ubuntu'" font-size="8.8px">e</text>
	<text transform="matrix(1 0 0 0.95 41.1426 67.0433)" font-family="'Ubuntu'" font-size="8.8px">a</text>
	<text transform="matrix(1 0 0 0.95 45.7622 67.0433)" font-family="'Ubuntu'" font-size="8.8px">t</text>
	<text transform="matrix(1 0 0 0.95 49.2383 67.0433)" font-family="'Ubuntu'" font-size="8.8px">e</text>
	<text transform="matrix(1 0 0 0.95 54.1836 67.0433)" font-family="'Ubuntu'" font-size="8.8px">s</text>
	<text transform="matrix(1 0 0 0.95 58.1348 67.0433)" font-family="'Ubuntu'" font-size="8.8px"> </text>
	<text transform="matrix(1 0 0 0.95 60.1938 67.0433)" font-family="'Ubuntu'" font-size="8.8px">a</text>
	<text transform="matrix(1 0 0 0.95 64.814 67.0433)" font-family="'Ubuntu'" font-size="8.8px"> </text>
	<text transform="matrix(1 0 0 0.95 66.873 67.0433)" font-family="'Ubuntu'" font-size="8.8px">r</text>
	<text transform="matrix(1 0 0 0.95 70.2959 67.0433)" font-family="'Ubuntu'" font-size="8.8px">e</text>
	<text transform="matrix(1 0 0 0.95 75.2417 67.0433)" font-family="'Ubuntu'" font-size="8.8px">n</text>
	<text transform="matrix(1 0 0 0.95 80.3188 67.0433)" font-family="'Ubuntu'" font-size="8.8px">d</text>
	<text transform="matrix(1 0 0 0.95 85.5288 67.0433)" font-family="'Ubuntu'" font-size="8.8px">e</text>
	<text transform="matrix(1 0 0 0.95 90.4741 67.0433)" font-family="'Ubuntu'" font-size="8.8px">r</text>
	<text transform="matrix(1 0 0 0.95 93.897 67.0433)" font-family="'Ubuntu'" font-size="8.8px"> </text>
	<text transform="matrix(1 0 0 0.95 95.9561 67.0433)" font-family="'Ubuntu'" font-size="8.8px">t</text>
	<text transform="matrix(1 0 0 0.95 99.52 67.0433)" font-family="'Ubuntu'" font-size="8.8px">r</text>
	<text transform="matrix(1 0 0 0.95 102.9434 67.0433)" font-family="'Ubuntu'" font-size="8.8px">e</text>
	<text transform="matrix(1 0 0 0.95 107.8887 67.0433)" font-family="'Ubuntu'" font-size="8.8px">e</text>
	<text transform="matrix(1 0 0 0.95 112.8345 67.0433)" font-family="'Ubuntu'" font-size="8.8px"> </text>
	<text transform="matrix(1 0 0 0.95 114.8936 67.0433)" font-family="'Ubuntu'" font-size="8.8px">f</text>
	<text transform="matrix(1 0 0 0.95 118.3164 67.0433)" font-family="'Ubuntu'" font-size="8.8px">r</text>
	<text transform="matrix(1 0 0 0.95 121.7393 67.0433)" font-family="'Ubuntu'" font-size="8.8px">o</text>
	<text transform="matrix(1 0 0 0.95 126.958 67.0433)" font-family="'Ubuntu'" font-size="8.8px">m</text>
	<text transform="matrix(1 0 0 0.95 134.5605 67.0433)" font-family="'Ubuntu'" font-size="8.8px"> </text>
	<text transform="matrix(1 0 0 0.95 136.6201 67.0433)" font-family="'Ubuntu'" font-size="8.8px">t</text>
	<text transform="matrix(1 0 0 0.95 140.1836 67.0433)" font-family="'Ubuntu'" font-size="8.8px">h</text>
	<text transform="matrix(1 0 0 0.95 145.2354 67.0433)" font-family="'Ubuntu'" font-size="8.8px">e</text>
	<text transform="matrix(1 0 0 0.95 150.1807 67.0433)" font-family="'Ubuntu'" font-size="8.8px"> </text>
	<text transform="matrix(1 0 0 0.95 152.2402 67.0433)" font-family="'Ubuntu'" font-size="8.8px">v</text>
	<text transform="matrix(1 0 0 0.95 156.6836 67.0433)" font-family="'Ubuntu'" font-size="8.8px">i</text>
	<text transform="matrix(1 0 0 0.95 158.9365 67.0433)" font-family="'Ubuntu'" font-size="8.8px">s</text>
	<text transform="matrix(1 0 0 0.95 162.8877 67.0433)" font-family="'Ubuntu'" font-size="8.8px">i</text>
	<text transform="matrix(1 0 0 0.95 165.1406 67.0433)" font-family="'Ubuntu'" font-size="8.8px">b</text>
	<text transform="matrix(1 0 0 0.95 170.3496 67.0433)" font-family="'Ubuntu'" font-size="8.8px">l</text>
	<text transform="matrix(1 0 0 0.95 172.7783 67.0433)" font-family="'Ubuntu'" font-size="8.8px">e</text>
	<text transform="matrix(1 0 0 0.95 177.7246 67.0433)" font-family="'Ubuntu'" font-size="8.8px"> </text>
	<text transform="matrix(1 0 0 0.95 179.7832 67.0433)" font-family="'Ubuntu'" font-size="8.8px">D</text>
	<text transform="matrix(1 0 0 0.95 186.084 67.0433)" font-family="'Ubuntu'" font-size="8.8px">O</text>
	<text transform="matrix(1 0 0 0.95 192.957 67.0433)" font-family="'Ubuntu'" font-size="8.8px">M</text>
	<text transform="matrix(1 0 0 0.95 200.6475 67.0433)" font-family="'Ubuntu'" font-size="8.8px"> </text>
	<text transform="matrix(1 0 0 0.95 202.707 67.0433)" font-family="'Ubuntu'" font-size="8.8px">n</text>
	<text transform="matrix(1 0 0 0.95 207.7842 67.0433)" font-family="'Ubuntu'" font-size="8.8px">o</text>
	<text transform="matrix(1 0 0 0.95 213.0029 67.0433)" font-family="'Ubuntu'" font-size="8.8px">d</text>
	<text transform="matrix(1 0 0 0.95 218.2119 67.0433)" font-family="'Ubuntu'" font-size="8.8px">e</text>
	<text transform="matrix(1 0 0 0.95 223.1582 67.0433)" font-family="'Ubuntu'" font-size="8.8px">s</text>
	<text transform="matrix(1 0 0 0.95 227.1094 67.0433)" font-family="'Ubuntu'" font-size="8.8px">;</text>
	<text transform="matrix(1 0 0 0.95 22.0381 78.5433)" font-family="'Ubuntu'" font-size="8.8px">•</text>
	<text transform="matrix(1 0 0 0.95 25.2324 78.5433)" font-family="'Ubuntu'" font-size="8.8px"> </text>
	<text transform="matrix(1 0 0 0.95 27.2915 78.5433)" font-family="'Ubuntu'" font-size="8.8px">A</text>
	<text transform="matrix(1 0 0 0.95 33.1523 78.5433)" font-family="'Ubuntu'" font-size="8.8px">p</text>
	<text transform="matrix(1 0 0 0.95 38.3618 78.5433)" font-family="'Ubuntu'" font-size="8.8px">p</text>
	<text transform="matrix(1 0 0 0.95 43.5713 78.5433)" font-family="'Ubuntu'" font-size="8.8px">l</text>
	<text transform="matrix(1 0 0 0.95 46 78.5433)" font-family="'Ubuntu'" font-size="8.8px">i</text>
	<text transform="matrix(1 0 0 0.95 48.2524 78.5433)" font-family="'Ubuntu'" font-size="8.8px">e</text>
	<text transform="matrix(1 0 0 0.95 53.1982 78.5433)" font-family="'Ubuntu'" font-size="8.8px">s</text>
	<text transform="matrix(1 0 0 0.95 57.1494 78.5433)" font-family="'Ubuntu'" font-size="8.8px"> </text>
	<text transform="matrix(1 0 0 0.95 59.2085 78.5433)" font-family="'Ubuntu'" font-size="8.8px">C</text>
	<text transform="matrix(1 0 0 0.95 64.7788 78.5433)" font-family="'Ubuntu'" font-size="8.8px">S</text>
	<text transform="matrix(1 0 0 0.95 69.4868 78.5433)" font-family="'Ubuntu'" font-size="8.8px">S</text>
	<text transform="matrix(1 0 0 0.95 74.1948 78.5433)" font-family="'Ubuntu'" font-size="8.8px">O</text>
	<text transform="matrix(1 0 0 0.95 81.0674 78.5433)" font-family="'Ubuntu'" font-size="8.8px">M</text>
	<text transform="matrix(1 0 0 0.95 88.7588 78.5433)" font-family="'Ubuntu'" font-size="8.8px"> </text>
	<text transform="matrix(1 0 0 0.95 90.8179 78.5433)" font-family="'Ubuntu'" font-size="8.8px">r</text>
	<text transform="matrix(1 0 0 0.95 94.2407 78.5433)" font-family="'Ubuntu'" font-size="8.8px">u</text>
	<text transform="matrix(1 0 0 0.95 99.3184 78.5433)" font-family="'Ubuntu'" font-size="8.8px">l</text>
	<text transform="matrix(1 0 0 0.95 101.7471 78.5433)" font-family="'Ubuntu'" font-size="8.8px">e</text>
	<text transform="matrix(1 0 0 0.95 106.6924 78.5433)" font-family="'Ubuntu'" font-size="8.8px">s</text>
	<text transform="matrix(1 0 0 0.95 110.6436 78.5433)" font-family="'Ubuntu'" font-size="8.8px"> </text>
	<text transform="matrix(1 0 0 0.95 112.7026 78.5433)" font-family="'Ubuntu'" font-size="8.8px">t</text>
	<text transform="matrix(1 0 0 0.95 116.1436 78.5433)" font-family="'Ubuntu'" font-size="8.8px">o</text>
	<text transform="matrix(1 0 0 0.95 121.3618 78.5433)" font-family="'Ubuntu'" font-size="8.8px"> </text>
	<text transform="matrix(1 0 0 0.95 123.4209 78.5433)" font-family="'Ubuntu'" font-size="8.8px">t</text>
	<text transform="matrix(1 0 0 0.95 126.9849 78.5433)" font-family="'Ubuntu'" font-size="8.8px">h</text>
	<text transform="matrix(1 0 0 0.95 132.0361 78.5433)" font-family="'Ubuntu'" font-size="8.8px">e</text>
	<text transform="matrix(1 0 0 0.95 136.9814 78.5433)" font-family="'Ubuntu'" font-size="8.8px"> </text>
	<text transform="matrix(1 0 0 0.95 139.041 78.5433)" font-family="'Ubuntu'" font-size="8.8px">n</text>
	<text transform="matrix(1 0 0 0.95 144.1182 78.5433)" font-family="'Ubuntu'" font-size="8.8px">o</text>
	<text transform="matrix(1 0 0 0.95 149.3369 78.5433)" font-family="'Ubuntu'" font-size="8.8px">d</text>
	<text transform="matrix(1 0 0 0.95 154.5459 78.5433)" font-family="'Ubuntu'" font-size="8.8px">e</text>
	<text transform="matrix(1 0 0 0.95 159.4912 78.5433)" font-family="'Ubuntu'" font-size="8.8px">s</text>
	<text transform="matrix(1 0 0 0.95 163.4424 78.5433)" font-family="'Ubuntu'" font-size="8.8px"> </text>
	<text transform="matrix(1 0 0 0.95 165.502 78.5433)" font-family="'Ubuntu'" font-size="8.8px">o</text>
	<text transform="matrix(1 0 0 0.95 170.7207 78.5433)" font-family="'Ubuntu'" font-size="8.8px">f</text>
	<text transform="matrix(1 0 0 0.95 174.1436 78.5433)" font-family="'Ubuntu'" font-size="8.8px"> </text>
	<text transform="matrix(1 0 0 0.95 176.2021 78.5433)" font-family="'Ubuntu'" font-size="8.8px">t</text>
	<text transform="matrix(1 0 0 0.95 179.7666 78.5433)" font-family="'Ubuntu'" font-size="8.8px">h</text>
	<text transform="matrix(1 0 0 0.95 184.8174 78.5433)" font-family="'Ubuntu'" font-size="8.8px">e</text>
	<text transform="matrix(1 0 0 0.95 189.7627 78.5433)" font-family="'Ubuntu'" font-size="8.8px"> </text>
	<text transform="matrix(1 0 0 0.95 191.8223 78.5433)" font-family="'Ubuntu'" font-size="8.8px">r</text>
	<text transform="matrix(1 0 0 0.95 195.2451 78.5433)" font-family="'Ubuntu'" font-size="8.8px">e</text>
	<text transform="matrix(1 0 0 0.95 200.1904 78.5433)" font-family="'Ubuntu'" font-size="8.8px">n</text>
	<text transform="matrix(1 0 0 0.95 205.2686 78.5433)" font-family="'Ubuntu'" font-size="8.8px">d</text>
	<text transform="matrix(1 0 0 0.95 210.4775 78.5433)" font-family="'Ubuntu'" font-size="8.8px">e</text>
	<text transform="matrix(1 0 0 0.95 215.4229 78.5433)" font-family="'Ubuntu'" font-size="8.8px">r</text>
	<text transform="matrix(1 0 0 0.95 218.8467 78.5433)" font-family="'Ubuntu'" font-size="8.8px"> </text>
	<text transform="matrix(1 0 0 0.95 220.9053 78.5433)" font-family="'Ubuntu'" font-size="8.8px">t</text>
	<text transform="matrix(1 0 0 0.95 224.4697 78.5433)" font-family="'Ubuntu'" font-size="8.8px">r</text>
	<text transform="matrix(1 0 0 0.95 227.8926 78.5433)" font-family="'Ubuntu'" font-size="8.8px">e</text>
	<text transform="matrix(1 0 0 0.95 232.8379 78.5433)" font-family="'Ubuntu'" font-size="8.8px">e</text>
	<text transform="matrix(1 0 0 0.95 237.7832 78.5433)" font-family="'Ubuntu'" font-size="8.8px">;</text>
	<text transform="matrix(1 0 0 0.95 22.0381 90.0433)" font-family="'Ubuntu'" font-size="8.8px">•</text>
	<text transform="matrix(1 0 0 0.95 25.2324 90.0433)" font-family="'Ubuntu'" font-size="8.8px"> </text>
	<text transform="matrix(1 0 0 0.95 27.2915 90.0433)" font-family="'Ubuntu'" font-size="8.8px">C</text>
	<text transform="matrix(1 0 0 0.95 32.6416 90.0433)" font-family="'Ubuntu'" font-size="8.8px">o</text>
	<text transform="matrix(1 0 0 0.95 37.8604 90.0433)" font-family="'Ubuntu'" font-size="8.8px">m</text>
	<text transform="matrix(1 0 0 0.95 45.4634 90.0433)" font-family="'Ubuntu'" font-size="8.8px">p</text>
	<text transform="matrix(1 0 0 0.95 50.6729 90.0433)" font-family="'Ubuntu'" font-size="8.8px">u</text>
	<text transform="matrix(1 0 0 0.95 55.7505 90.0433)" font-family="'Ubuntu'" font-size="8.8px">t</text>
	<text transform="matrix(1 0 0 0.95 59.2261 90.0433)" font-family="'Ubuntu'" font-size="8.8px">e</text>
	<text transform="matrix(1 0 0 0.95 64.1719 90.0433)" font-family="'Ubuntu'" font-size="8.8px">s</text>
	<text transform="matrix(1 0 0 0.95 68.123 90.0433)" font-family="'Ubuntu'" font-size="8.8px"> </text>
	<text transform="matrix(1 0 0 0.95 70.1821 90.0433)" font-family="'Ubuntu'" font-size="8.8px">a</text>
	<text transform="matrix(1 0 0 0.95 74.8018 90.0433)" font-family="'Ubuntu'" font-size="8.8px"> </text>
	<text transform="matrix(1 0 0 0.95 76.8608 90.0433)" font-family="'Ubuntu'" font-size="8.8px">l</text>
	<text transform="matrix(1 0 0 0.95 79.2896 90.0433)" font-family="'Ubuntu'" font-size="8.8px">a</text>
	<text transform="matrix(1 0 0 0.95 83.7778 90.0433)" font-family="'Ubuntu'" font-size="8.8px">y</text>
	<text transform="matrix(1 0 0 0.95 88.1777 90.0433)" font-family="'Ubuntu'" font-size="8.8px">o</text>
	<text transform="matrix(1 0 0 0.95 93.396 90.0433)" font-family="'Ubuntu'" font-size="8.8px">u</text>
	<text transform="matrix(1 0 0 0.95 98.4736 90.0433)" font-family="'Ubuntu'" font-size="8.8px">t</text>
	<text transform="matrix(1 0 0 0.95 102.0376 90.0433)" font-family="'Ubuntu'" font-size="8.8px"> </text>
	<text transform="matrix(1 0 0 0.95 104.0967 90.0433)" font-family="'Ubuntu'" font-size="8.8px">t</text>
	<text transform="matrix(1 0 0 0.95 107.5371 90.0433)" font-family="'Ubuntu'" font-size="8.8px">o</text>
	<text transform="matrix(1 0 0 0.95 112.7559 90.0433)" font-family="'Ubuntu'" font-size="8.8px"> </text>
	<text transform="matrix(1 0 0 0.95 114.8149 90.0433)" font-family="'Ubuntu'" font-size="8.8px">u</text>
	<text transform="matrix(1 0 0 0.95 119.8921 90.0433)" font-family="'Ubuntu'" font-size="8.8px">n</text>
	<text transform="matrix(1 0 0 0.95 124.9697 90.0433)" font-family="'Ubuntu'" font-size="8.8px">d</text>
	<text transform="matrix(1 0 0 0.95 130.1797 90.0433)" font-family="'Ubuntu'" font-size="8.8px">e</text>
	<text transform="matrix(1 0 0 0.95 135.125 90.0433)" font-family="'Ubuntu'" font-size="8.8px">r</text>
	<text transform="matrix(1 0 0 0.95 138.5479 90.0433)" font-family="'Ubuntu'" font-size="8.8px">s</text>
	<text transform="matrix(1 0 0 0.95 142.499 90.0433)" font-family="'Ubuntu'" font-size="8.8px">t</text>
	<text transform="matrix(1 0 0 0.95 146.0625 90.0433)" font-family="'Ubuntu'" font-size="8.8px">a</text>
	<text transform="matrix(1 0 0 0.95 150.6826 90.0433)" font-family="'Ubuntu'" font-size="8.8px">n</text>
	<text transform="matrix(1 0 0 0.95 155.7607 90.0433)" font-family="'Ubuntu'" font-size="8.8px">d</text>
	<text transform="matrix(1 0 0 0.95 160.9697 90.0433)" font-family="'Ubuntu'" font-size="8.8px"> </text>
	<text transform="matrix(1 0 0 0.95 163.0293 90.0433)" font-family="'Ubuntu'" font-size="8.8px">t</text>
	<text transform="matrix(1 0 0 0.95 166.5928 90.0433)" font-family="'Ubuntu'" font-size="8.8px">h</text>
	<text transform="matrix(1 0 0 0.95 171.6445 90.0433)" font-family="'Ubuntu'" font-size="8.8px">e</text>
	<text transform="matrix(1 0 0 0.95 176.5898 90.0433)" font-family="'Ubuntu'" font-size="8.8px"> </text>
	<text transform="matrix(1 0 0 0.95 178.6484 90.0433)" font-family="'Ubuntu'" font-size="8.8px">s</text>
	<text transform="matrix(1 0 0 0.95 182.5996 90.0433)" font-family="'Ubuntu'" font-size="8.8px">i</text>
	<text transform="matrix(1 0 0 0.95 184.8525 90.0433)" font-family="'Ubuntu'" font-size="8.8px">z</text>
	<text transform="matrix(1 0 0 0.95 188.8564 90.0433)" font-family="'Ubuntu'" font-size="8.8px">e</text>
	<text transform="matrix(1 0 0 0.95 193.8018 90.0433)" font-family="'Ubuntu'" font-size="8.8px"> </text>
	<text transform="matrix(1 0 0 0.95 195.8613 90.0433)" font-family="'Ubuntu'" font-size="8.8px">a</text>
	<text transform="matrix(1 0 0 0.95 200.4814 90.0433)" font-family="'Ubuntu'" font-size="8.8px">n</text>
	<text transform="matrix(1 0 0 0.95 205.5586 90.0433)" font-family="'Ubuntu'" font-size="8.8px">d</text>
	<text transform="matrix(1 0 0 0.95 210.7676 90.0433)" font-family="'Ubuntu'" font-size="8.8px"> </text>
	<text transform="matrix(1 0 0 0.95 212.8271 90.0433)" font-family="'Ubuntu'" font-size="8.8px">p</text>
	<text transform="matrix(1 0 0 0.95 218.0361 90.0433)" font-family="'Ubuntu'" font-size="8.8px">o</text>
	<text transform="matrix(1 0 0 0.95 223.2549 90.0433)" font-family="'Ubuntu'" font-size="8.8px">-</text>
	<text transform="matrix(1 0 0 0.95 22.0381 101.5433)" font-family="'Ubuntu'" font-size="8.8px">s</text>
	<text transform="matrix(1 0 0 0.95 25.9893 101.5433)" font-family="'Ubuntu'" font-size="8.8px">i</text>
	<text transform="matrix(1 0 0 0.95 28.2422 101.5433)" font-family="'Ubuntu'" font-size="8.8px">t</text>
	<text transform="matrix(1 0 0 0.95 31.8062 101.5433)" font-family="'Ubuntu'" font-size="8.8px">i</text>
	<text transform="matrix(1 0 0 0.95 34.0586 101.5433)" font-family="'Ubuntu'" font-size="8.8px">o</text>
	<text transform="matrix(1 0 0 0.95 39.2769 101.5433)" font-family="'Ubuntu'" font-size="8.8px">n</text>
	<text transform="matrix(1 0 0 0.95 44.3545 101.5433)" font-family="'Ubuntu'" font-size="8.8px"> </text>
	<text transform="matrix(1 0 0 0.95 46.4136 101.5433)" font-family="'Ubuntu'" font-size="8.8px">o</text>
	<text transform="matrix(1 0 0 0.95 51.6318 101.5433)" font-family="'Ubuntu'" font-size="8.8px">f</text>
	<text transform="matrix(1 0 0 0.95 55.0552 101.5433)" font-family="'Ubuntu'" font-size="8.8px"> </text>
	<text transform="matrix(1 0 0 0.95 57.1143 101.5433)" font-family="'Ubuntu'" font-size="8.8px">e</text>
	<text transform="matrix(1 0 0 0.95 62.0596 101.5433)" font-family="'Ubuntu'" font-size="8.8px">a</text>
	<text transform="matrix(1 0 0 0.95 66.6797 101.5433)" font-family="'Ubuntu'" font-size="8.8px">c</text>
	<text transform="matrix(1 0 0 0.95 70.7979 101.5433)" font-family="'Ubuntu'" font-size="8.8px">h</text>
	<text transform="matrix(1 0 0 0.95 75.8491 101.5433)" font-family="'Ubuntu'" font-size="8.8px"> </text>
	<text transform="matrix(1 0 0 0.95 77.9082 101.5433)" font-family="'Ubuntu'" font-size="8.8px">o</text>
	<text transform="matrix(1 0 0 0.95 83.1265 101.5433)" font-family="'Ubuntu'" font-size="8.8px">b</text>
	<text transform="matrix(1 0 0 0.95 88.3359 101.5433)" font-family="'Ubuntu'" font-size="8.8px">j</text>
	<text transform="matrix(1 0 0 0.95 90.5889 101.5433)" font-family="'Ubuntu'" font-size="8.8px">e</text>
	<text transform="matrix(1 0 0 0.95 95.5342 101.5433)" font-family="'Ubuntu'" font-size="8.8px">c</text>
	<text transform="matrix(1 0 0 0.95 99.6523 101.5433)" font-family="'Ubuntu'" font-size="8.8px">t</text>
	<text transform="matrix(1 0 0 0.95 103.2163 101.5433)" font-family="'Ubuntu'" font-size="8.8px"> </text>
	<text transform="matrix(1 0 0 0.95 105.2754 101.5433)" font-family="'Ubuntu'" font-size="8.8px">o</text>
	<text transform="matrix(1 0 0 0.95 110.4941 101.5433)" font-family="'Ubuntu'" font-size="8.8px">n</text>
	<text transform="matrix(1 0 0 0.95 115.5713 101.5433)" font-family="'Ubuntu'" font-size="8.8px"> </text>
	<text transform="matrix(1 0 0 0.95 117.6304 101.5433)" font-family="'Ubuntu'" font-size="8.8px">t</text>
	<text transform="matrix(1 0 0 0.95 121.1943 101.5433)" font-family="'Ubuntu'" font-size="8.8px">h</text>
	<text transform="matrix(1 0 0 0.95 126.2456 101.5433)" font-family="'Ubuntu'" font-size="8.8px">e</text>
	<text transform="matrix(1 0 0 0.95 131.1914 101.5433)" font-family="'Ubuntu'" font-size="8.8px"> </text>
	<text transform="matrix(1 0 0 0.95 133.25 101.5433)" font-family="'Ubuntu'" font-size="8.8px">p</text>
	<text transform="matrix(1 0 0 0.95 138.46 101.5433)" font-family="'Ubuntu'" font-size="8.8px">a</text>
	<text transform="matrix(1 0 0 0.95 143.0801 101.5433)" font-family="'Ubuntu'" font-size="8.8px">g</text>
	<text transform="matrix(1 0 0 0.95 148.1924 101.5433)" font-family="'Ubuntu'" font-size="8.8px">e</text>
	<text transform="matrix(1 0 0 0.95 153.1377 101.5433)" font-family="'Ubuntu'" font-size="8.8px">;</text>
	<text transform="matrix(1 0 0 0.95 22.0381 113.0433)" font-family="'Ubuntu'" font-size="8.8px">•</text>
	<text transform="matrix(1 0 0 0.95 25.2324 113.0433)" font-family="'Ubuntu'" font-size="8.8px"> </text>
	<text transform="matrix(1 0 0 0.95 27.2915 113.0433)" font-family="'Ubuntu'" font-size="8.8px">C</text>
	<text transform="matrix(1 0 0 0.95 32.6416 113.0433)" font-family="'Ubuntu'" font-size="8.8px">o</text>
	<text transform="matrix(1 0 0 0.95 37.8604 113.0433)" font-family="'Ubuntu'" font-size="8.8px">n</text>
	<text transform="matrix(1 0 0 0.95 42.7969 113.0433)" font-family="'Ubuntu'" font-size="8.8px">v</text>
	<text transform="matrix(1 0 0 0.95 47.1177 113.0433)" font-family="'Ubuntu'" font-size="8.8px">e</text>
	<text transform="matrix(1 0 0 0.95 52.0635 113.0433)" font-family="'Ubuntu'" font-size="8.8px">r</text>
	<text transform="matrix(1 0 0 0.95 55.4863 113.0433)" font-family="'Ubuntu'" font-size="8.8px">t</text>
	<text transform="matrix(1 0 0 0.95 59.0503 113.0433)" font-family="'Ubuntu'" font-size="8.8px">s</text>
	<text transform="matrix(1 0 0 0.95 63.0015 113.0433)" font-family="'Ubuntu'" font-size="8.8px"> </text>
	<text transform="matrix(1 0 0 0.95 65.0605 113.0433)" font-family="'Ubuntu'" font-size="8.8px">e</text>
	<text transform="matrix(1 0 0 0.95 70.0059 113.0433)" font-family="'Ubuntu'" font-size="8.8px">a</text>
	<text transform="matrix(1 0 0 0.95 74.626 113.0433)" font-family="'Ubuntu'" font-size="8.8px">c</text>
	<text transform="matrix(1 0 0 0.95 78.7441 113.0433)" font-family="'Ubuntu'" font-size="8.8px">h</text>
	<text transform="matrix(1 0 0 0.95 83.7954 113.0433)" font-family="'Ubuntu'" font-size="8.8px"> </text>
	<text transform="matrix(1 0 0 0.95 85.8545 113.0433)" font-family="'Ubuntu'" font-size="8.8px">n</text>
	<text transform="matrix(1 0 0 0.95 90.9321 113.0433)" font-family="'Ubuntu'" font-size="8.8px">o</text>
	<text transform="matrix(1 0 0 0.95 96.1504 113.0433)" font-family="'Ubuntu'" font-size="8.8px">d</text>
	<text transform="matrix(1 0 0 0.95 101.3599 113.0433)" font-family="'Ubuntu'" font-size="8.8px">e</text>
	<text transform="matrix(1 0 0 0.95 106.3057 113.0433)" font-family="'Ubuntu'" font-size="8.8px"> </text>
	<text transform="matrix(1 0 0 0.95 108.3647 113.0433)" font-family="'Ubuntu'" font-size="8.8px">i</text>
	<text transform="matrix(1 0 0 0.95 110.6172 113.0433)" font-family="'Ubuntu'" font-size="8.8px">n</text>
	<text transform="matrix(1 0 0 0.95 115.6948 113.0433)" font-family="'Ubuntu'" font-size="8.8px"> </text>
	<text transform="matrix(1 0 0 0.95 117.7539 113.0433)" font-family="'Ubuntu'" font-size="8.8px">t</text>
	<text transform="matrix(1 0 0 0.95 121.3179 113.0433)" font-family="'Ubuntu'" font-size="8.8px">h</text>
	<text transform="matrix(1 0 0 0.95 126.3691 113.0433)" font-family="'Ubuntu'" font-size="8.8px">e</text>
	<text transform="matrix(1 0 0 0.95 131.3145 113.0433)" font-family="'Ubuntu'" font-size="8.8px"> </text>
	<text transform="matrix(1 0 0 0.95 133.374 113.0433)" font-family="'Ubuntu'" font-size="8.8px">r</text>
	<text transform="matrix(1 0 0 0.95 136.7969 113.0433)" font-family="'Ubuntu'" font-size="8.8px">e</text>
	<text transform="matrix(1 0 0 0.95 141.7422 113.0433)" font-family="'Ubuntu'" font-size="8.8px">n</text>
	<text transform="matrix(1 0 0 0.95 146.8193 113.0433)" font-family="'Ubuntu'" font-size="8.8px">d</text>
	<text transform="matrix(1 0 0 0.95 152.0293 113.0433)" font-family="'Ubuntu'" font-size="8.8px">e</text>
	<text transform="matrix(1 0 0 0.95 156.9746 113.0433)" font-family="'Ubuntu'" font-size="8.8px">r</text>
	<text transform="matrix(1 0 0 0.95 160.3975 113.0433)" font-family="'Ubuntu'" font-size="8.8px"> </text>
	<text transform="matrix(1 0 0 0.95 162.457 113.0433)" font-family="'Ubuntu'" font-size="8.8px">t</text>
	<text transform="matrix(1 0 0 0.95 166.0205 113.0433)" font-family="'Ubuntu'" font-size="8.8px">r</text>
	<text transform="matrix(1 0 0 0.95 169.4443 113.0433)" font-family="'Ubuntu'" font-size="8.8px">e</text>
	<text transform="matrix(1 0 0 0.95 174.3896 113.0433)" font-family="'Ubuntu'" font-size="8.8px">e</text>
	<text transform="matrix(1 0 0 0.95 179.335 113.0433)" font-family="'Ubuntu'" font-size="8.8px"> </text>
	<text transform="matrix(1 0 0 0.95 181.3936 113.0433)" font-family="'Ubuntu'" font-size="8.8px">t</text>
	<text transform="matrix(1 0 0 0.95 184.835 113.0433)" font-family="'Ubuntu'" font-size="8.8px">o</text>
	<text transform="matrix(1 0 0 0.95 190.0527 113.0433)" font-family="'Ubuntu'" font-size="8.8px"> </text>
	<text transform="matrix(1 0 0 0.95 192.1123 113.0433)" font-family="'Ubuntu'" font-size="8.8px">a</text>
	<text transform="matrix(1 0 0 0.95 196.7324 113.0433)" font-family="'Ubuntu'" font-size="8.8px">c</text>
	<text transform="matrix(1 0 0 0.95 200.8506 113.0433)" font-family="'Ubuntu'" font-size="8.8px">t</text>
	<text transform="matrix(1 0 0 0.95 204.4141 113.0433)" font-family="'Ubuntu'" font-size="8.8px">u</text>
	<text transform="matrix(1 0 0 0.95 209.4922 113.0433)" font-family="'Ubuntu'" font-size="8.8px">a</text>
	<text transform="matrix(1 0 0 0.95 214.1113 113.0433)" font-family="'Ubuntu'" font-size="8.8px">l</text>
	<text transform="matrix(1 0 0 0.95 22.0381 124.5433)" font-family="'Ubuntu'" font-size="8.8px">p</text>
	<text transform="matrix(1 0 0 0.95 27.2476 124.5433)" font-family="'Ubuntu'" font-size="8.8px">i</text>
	<text transform="matrix(1 0 0 0.95 29.5005 124.5433)" font-family="'Ubuntu'" font-size="8.8px">x</text>
	<text transform="matrix(1 0 0 0.95 33.8389 124.5433)" font-family="'Ubuntu'" font-size="8.8px">e</text>
	<text transform="matrix(1 0 0 0.95 38.7842 124.5433)" font-family="'Ubuntu'" font-size="8.8px">l</text>
	<text transform="matrix(1 0 0 0.95 41.2129 124.5433)" font-family="'Ubuntu'" font-size="8.8px">s</text>
	<text transform="matrix(1 0 0 0.95 45.1641 124.5433)" font-family="'Ubuntu'" font-size="8.8px"> </text>
	<text transform="matrix(1 0 0 0.95 47.2231 124.5433)" font-family="'Ubuntu'" font-size="8.8px">o</text>
	<text transform="matrix(1 0 0 0.95 52.4414 124.5433)" font-family="'Ubuntu'" font-size="8.8px">n</text>
	<text transform="matrix(1 0 0 0.95 57.519 124.5433)" font-family="'Ubuntu'" font-size="8.8px"> </text>
	<text transform="matrix(1 0 0 0.95 59.5781 124.5433)" font-family="'Ubuntu'" font-size="8.8px">t</text>
	<text transform="matrix(1 0 0 0.95 63.1421 124.5433)" font-family="'Ubuntu'" font-size="8.8px">h</text>
	<text transform="matrix(1 0 0 0.95 68.1934 124.5433)" font-family="'Ubuntu'" font-size="8.8px">e</text>
	<text transform="matrix(1 0 0 0.95 73.1387 124.5433)" font-family="'Ubuntu'" font-size="8.8px"> </text>
	<text transform="matrix(1 0 0 0.95 75.1978 124.5433)" font-family="'Ubuntu'" font-size="8.8px">s</text>
	<text transform="matrix(1 0 0 0.95 79.1489 124.5433)" font-family="'Ubuntu'" font-size="8.8px">c</text>
	<text transform="matrix(1 0 0 0.95 83.2676 124.5433)" font-family="'Ubuntu'" font-size="8.8px">r</text>
	<text transform="matrix(1 0 0 0.95 86.6904 124.5433)" font-family="'Ubuntu'" font-size="8.8px">e</text>
	<text transform="matrix(1 0 0 0.95 91.6357 124.5433)" font-family="'Ubuntu'" font-size="8.8px">e</text>
	<text transform="matrix(1 0 0 0.95 96.5815 124.5433)" font-family="'Ubuntu'" font-size="8.8px">n</text>
	<text transform="matrix(1 0 0 0.95 101.6592 124.5433)" font-family="'Ubuntu'" font-size="8.8px">.</text>
</g>
</svg>
