<?xml version="1.0" encoding="UTF-8" standalone="no"?>
<svg
   xmlns:dc="http://purl.org/dc/elements/1.1/"
   xmlns:cc="http://creativecommons.org/ns#"
   xmlns:rdf="http://www.w3.org/1999/02/22-rdf-syntax-ns#"
   xmlns:svg="http://www.w3.org/2000/svg"
   xmlns="http://www.w3.org/2000/svg"
   viewBox="0 0 318.875 177.125"
   height="177.125"
   width="318.875"
   xml:space="preserve"
   version="1.1"
   id="svg5096"><metadata
     id="metadata5102"><rdf:RDF><cc:Work
         rdf:about=""><dc:format>image/svg+xml</dc:format><dc:type
           rdf:resource="http://purl.org/dc/dcmitype/StillImage" /><dc:title></dc:title></cc:Work></rdf:RDF></metadata>
    <defs
     id="defs5100">
        <style type="text/css"><![CDATA[
           @font-face {
        font-family: "Ubuntu";
        src: url("Flashcards.js_files/fonts/Ubuntu-Regular.ttf") format("truetype");
        font-weight: normal;
        font-style: normal;
    }]]>
</style>

        <clipPath
       id="clipPath5112"
       clipPathUnits="userSpaceOnUse"><path
         id="path5114"
         d="m 0,141.7 255.1,0 L 255.1,0 0,0 0,141.7 Z" /></clipPath><clipPath
       id="clipPath5132"
       clipPathUnits="userSpaceOnUse"><path
         id="path5134"
         d="m 0,141.7 255.1,0 L 255.1,0 0,0 0,141.7 Z" /></clipPath>
    </defs><g
     transform="matrix(1.25,0,0,-1.25,0,177.125)"
     id="g5104"><path
       id="path5106"
       style="fill:#34459a;fill-opacity:1;fill-rule:nonzero;stroke:none"
       d="m 0,0 255.1,0 0,141.7 L 0,141.7 0,0 Z" /><g
       id="g5108"><g
         clip-path="url(#clipPath5112)"
         id="g5110"><g
           transform="translate(33,20.9998)"
           id="g5116"><path
             id="path5118"
             style="fill:none;stroke:#ffffff;stroke-width:0.5;stroke-linecap:butt;stroke-linejoin:miter;stroke-miterlimit:4;stroke-dasharray:none;stroke-opacity:1"
             d="m 0,0 c 0,-1.1 -0.9,-2 -2,-2 l -12,0 c -1.1,0 -2,0.9 -2,2 l 0,7.4 c 0,1.1 0.9,2 2,2 l 12,0 c 1.1,0 2,-0.9 2,-2 L 0,0 Z" /></g></g></g><text
       id="text5120"
       style="font-variant:normal;font-weight:normal;font-stretch:normal;font-size:8.50389957px;font-family:Ubuntu;-inkscape-font-specification:Ubuntu;writing-mode:lr-tb;fill:#ffffff;fill-opacity:1;fill-rule:nonzero;stroke:none"
       transform="matrix(1,0,0,-1,20.1035,21.6506)"><tspan
         id="tspan5122"
         y="0"
         x="0 4.7961998">01</tspan></text>
<text
       id="text5124"
       style="font-variant:normal;font-weight:500;font-stretch:normal;font-size:6px;font-family:Ubuntu;-inkscape-font-specification:'Ubuntu Medium';writing-mode:lr-tb;fill:#ffffff;fill-opacity:1;fill-rule:nonzero;stroke:none;font-style:normal;"
       transform="matrix(1,0,0,-1,16.46,110.7775)"><tspan
         style="-inkscape-font-specification:'Ubuntu, Normal';font-family:Ubuntu;font-weight:normal;font-style:normal;font-stretch:normal;font-variant:normal;font-size:6px;text-anchor:start;text-align:start;writing-mode:lr;line-height:125%"
         id="tspan5126"
         y="0"
         x="0 4.9380002 9.7259998 15.336 21.959999 26.195999 30.714001">BROWSER</tspan></text>
<g
       id="g5128"><g
         clip-path="url(#clipPath5132)"
         id="g5130"><g
           transform="translate(25.2998,141.7)"
           id="g5136"><path
             id="path5138"
             style="fill:#ffffff;fill-opacity:1;fill-rule:nonzero;stroke:none"
             d="m 0,0 c 0,-2.3 -1.9,-4.3 -4.3,-4.3 -2.3,0 -4.3,1.9 -4.3,4.3" /></g><g
           transform="translate(38.1001,141.7)"
           id="g5140"><path
             id="path5142"
             style="fill:#ffffff;fill-opacity:1;fill-rule:nonzero;stroke:none"
             d="m 0,0 c 0,-2.3 -1.9,-4.3 -4.3,-4.3 -2.3,0 -4.3,1.9 -4.3,4.3" /></g><g
           transform="translate(50.7998,141.7)"
           id="g5144"><path
             id="path5146"
             style="fill:#ffffff;fill-opacity:1;fill-rule:nonzero;stroke:none"
             d="m 0,0 c 0,-2.3 -1.9,-4.3 -4.3,-4.3 -2.3,0 -4.3,1.9 -4.3,4.3" /></g><g
           transform="translate(16.7998,141.7)"
           id="g5148"><path
             id="path5150"
             style="fill:#ffffff;fill-opacity:1;fill-rule:nonzero;stroke:none"
             d="M 0,0 8.5,0 0,0 Z" /></g><g
           transform="translate(29.5,141.7)"
           id="g5152"><path
             id="path5154"
             style="fill:#ffffff;fill-opacity:1;fill-rule:nonzero;stroke:none"
             d="M 0,0 8.5,0 0,0 Z" /></g><g
           transform="translate(42.2998,141.7)"
           id="g5156"><path
             id="path5158"
             style="fill:#ffffff;fill-opacity:1;fill-rule:nonzero;stroke:none"
             d="M 0,0 8.5,0 0,0 Z" /></g></g></g><text
       id="text5160"
       style="font-variant:normal;font-weight:normal;font-stretch:normal;font-size:24px;font-family:Ubuntu;-inkscape-font-specification:Ubuntu;writing-mode:lr-tb;fill:#ffffff;fill-opacity:1;fill-rule:nonzero;stroke:none"
       transform="matrix(1,0,0,-1,15.1562,84.3068)"><tspan
         id="tspan5162"
         y="0"
         x="0">What is a critical </tspan><tspan
         id="tspan5164"
         y="28.799999"
         x="0">rendering path?</tspan></text>
</g></svg>