<?xml version="1.0" encoding="UTF-8" standalone="no"?>
<svg
   xmlns:dc="http://purl.org/dc/elements/1.1/"
   xmlns:cc="http://creativecommons.org/ns#"
   xmlns:rdf="http://www.w3.org/1999/02/22-rdf-syntax-ns#"
   xmlns:svg="http://www.w3.org/2000/svg"
   xmlns="http://www.w3.org/2000/svg"
   height="80.300003"
   width="70.994736"
   id="svg2"
   xml:space="preserve"
   enable-background="new 0 0 100 100"
   viewBox="0 0 70.994736 80.300003"
   y="0px"
   x="0px"
   version="1.1"><metadata
     id="metadata54"><rdf:RDF><cc:Work
         rdf:about=""><dc:format>image/svg+xml</dc:format><dc:type
           rdf:resource="http://purl.org/dc/dcmitype/StillImage" /><dc:title></dc:title></cc:Work></rdf:RDF></metadata><defs
     id="defs52" /><path
     d="m 58.194738,18.4 -1.9,-0.7 -10.2,-3.7 -2.1,-0.8 -9.5,-3.5 -2.4,-0.8 -1.9,-0.7 -20.1,55.3 0,0.4 2.3,0.9 1.3,0.5 1.3,0.5 0.4,0.2 2.4,0.9 5.2,1.9 25.1,9.1 2.2,-6 0.4,-1 0.4,-1 1.8,-4.9 15.6,-42.7 -10.3,-3.9 z m -14.5,30.9 c -1.7,0.4 -3.3,0 -4.5,-1 0.5,2.2 1.7,4.6 4.3,6.1 l -7.6,-2.9 0,0 -7.6,-2.9 c 2.9,0.5 5.4,-0.5 7.3,-1.8 -2.2,-0.1 -4.3,-1.6 -4.8,-3.9 -0.6,-2.3 0.5,-4.6 2.4,-5.7 0.3,-0.2 0.7,-0.4 1.1,-0.5 l 8.8,-3.9 4,8.7 c 0.2,0.3 0.4,0.7 0.5,1.1 l 0,0 c 0,0.1 0.1,0.2 0.1,0.3 0.4,2.8 -1.3,5.6 -4,6.4 z"
     id="path38"
     style="fill:none" /><polygon
     transform="translate(-20.905262,-12)"
     points="35.6,17.5 23.3,18.9 29.4,72.1 "
     id="polygon40"
     style="fill:none" /><path
     style="fill:#f2f2f2"
     d="m 58.394738,16.4 0.8,-7.2 -13.9,-1.6 -0.8,-7.6 -12.7,1.5 -0.07812,0.00482 L 0,4.995402 6.494738,68.7 l 3.4,-1.1 2.4,-0.3 2.3,0.3 34.8,12.7 0.3,-0.9 21.3,-58.4 z m -1.4,-5.5 -0.5,4.8 -10.6,-3.9 -8.783703,-3.161815 z M 37.097911,8.58168 37.094738,8.6 37.071268,8.6095 Z M 42.694738,2.3 l 0.6,5 -10,-1.1 L 20.909582,4.762891 Z M 20.8963,4.851562 20.874035,4.794531 28.994738,5.7 20.917004,4.842187 20.894738,4.8 20.887338,4.7961 Z M 28.294738,7.6 l -17.2,47.4 5.5,-48.7 z M 29.338284,3.46565 29.794738,1.7 l -23.1,2.7 z M 0.294738,6.4 l 6.6,56.9 L 2.365208,7.104155 M 8.494738,60.1 l -6.1,-53.2 12.3,-1.4 z m 42.6,9.7 -0.4,1 -0.4,1 -2.2,6 -25,-9.2 -5.2,-1.9 -2.4,-0.9 -0.4,-0.2 -1.3,-0.5 -1.3,-0.5 -2.4,-0.7 0,-0.4 20.1,-55.3 1.9,0.7 2.4,0.9 9.5,3.5 2.1,0.7 10.1,3.7 1.9,0.7 10.3,3.7 -15.5,42.8 z"
     id="path42" /><path
     id="path10"
     d="m 36.48765,43.62786 c -0.328661,0.868118 -0.736796,1.616656 -1.222033,2.24651 -0.487608,0.628959 -1.043339,1.115516 -1.674308,1.456976 -0.630973,0.341463 -1.331215,0.52924 -2.097466,0.561858 -0.767722,0.02936 -1.599584,-0.122883 -2.496166,-0.462311 -0.405595,-0.153561 -0.798366,-0.326658 -1.175937,-0.518418 -0.379945,-0.192659 -0.763345,-0.419163 -1.152573,-0.680419 l 0.98863,-2.031144 c 0.09139,-0.176933 0.22386,-0.297623 0.39505,-0.362981 0.171174,-0.06535 0.372105,-0.05167 0.606925,0.03719 0.120959,0.04579 0.263212,0.121339 0.426739,0.226637 0.162616,0.107661 0.369813,0.205088 0.618862,0.29938 0.348669,0.132012 0.670234,0.199517 0.967962,0.201038 0.294455,0.003 0.570463,-0.0742 0.826548,-0.234874 0.25609,-0.160672 0.495518,-0.406303 0.717399,-0.734504 0.222775,-0.330574 0.436088,-0.765072 0.637237,-1.296378 l 3.782284,-9.990466 3.607668,1.365826 -3.754447,9.916934 z"
     style="fill:#f2f2f2" /><path
     id="path12"
     d="m 50.497547,41.205742 c -0.171393,0.130362 -0.331361,0.216258 -0.479911,0.257634 -0.150931,0.04049 -0.316516,0.02662 -0.501525,-0.04342 -0.163669,-0.06195 -0.322697,-0.179119 -0.470567,-0.354425 -0.151132,-0.173839 -0.320609,-0.37087 -0.511681,-0.58965 -0.191064,-0.218774 -0.41984,-0.43827 -0.687201,-0.656099 -0.266467,-0.220191 -0.593907,-0.401118 -0.985271,-0.549286 -0.675991,-0.255935 -1.233614,-0.301606 -1.675234,-0.137953 -0.440722,0.161289 -0.754022,0.487417 -0.939904,0.978403 -0.118529,0.313091 -0.114431,0.610242 0.0067,0.892028 0.120215,0.284157 0.312303,0.557559 0.579785,0.832383 0.268378,0.272452 0.586312,0.550107 0.957072,0.83149 0.369863,0.283757 0.739979,0.581168 1.11567,0.899672 0.378959,0.31703 0.732014,0.659507 1.071345,1.023906 0.336959,0.363502 0.608199,0.764496 0.811025,1.210097 0.203723,0.443231 0.317364,0.931002 0.343296,1.464209 0.02593,0.533207 -0.08461,1.125947 -0.32973,1.77348 -0.27209,0.718686 -0.651927,1.342342 -1.138941,1.876609 -0.483744,0.532794 -1.053182,0.94094 -1.701193,1.227136 -0.651284,0.28767 -1.373959,0.434414 -2.16713,0.437857 -0.793168,0.0034 -1.631827,-0.159477 -2.516546,-0.494434 -0.481499,-0.182284 -0.955995,-0.418879 -1.421124,-0.70887 -0.462758,-0.289094 -0.896017,-0.613121 -1.294139,-0.972659 -0.403763,-0.358964 -0.76322,-0.741831 -1.081645,-1.147129 -0.31932,-0.402926 -0.57389,-0.819303 -0.764025,-1.241118 l 1.705821,-1.282335 c 0.132077,-0.09101 0.281276,-0.148437 0.452648,-0.178473 0.170479,-0.02767 0.336068,-0.01378 0.499731,0.04815 0.211108,0.07991 0.403274,0.231309 0.567932,0.448234 0.167038,0.217803 0.354763,0.459735 0.568843,0.72519 0.213172,0.267826 0.468802,0.538162 0.7743,0.805686 0.30223,0.268989 0.698387,0.497622 1.179883,0.679911 0.654647,0.247846 1.220281,0.293848 1.69421,0.145127 0.470082,-0.152866 0.825132,-0.53914 1.062198,-1.165323 0.137381,-0.362901 0.151495,-0.693834 0.0394,-0.999337 C 45.148594,46.939298 44.95626,46.652243 44.690254,46.38069 44.421874,46.108235 44.103618,45.838593 43.734009,45.568494 43.3653,45.296031 42.988322,45.009574 42.608716,44.708571 42.225267,44.403401 41.870093,44.073682 41.531338,43.714924 41.195853,43.35469 40.928781,42.94985 40.731919,42.49566 40.5327,42.04057 40.427128,41.531453 40.414668,40.962665 c -0.01156,-0.571157 0.119587,-1.218453 0.394377,-1.944254 0.220013,-0.581118 0.554115,-1.105477 0.997586,-1.574871 0.44405,-0.463755 0.978025,-0.828378 1.59776,-1.090025 0.618262,-0.264915 1.31061,-0.396023 2.068778,-0.407293 0.759642,-0.008 1.568039,0.148885 2.419554,0.471269 0.476752,0.180504 0.927278,0.394449 1.351576,0.641865 0.422824,0.244153 0.810832,0.515785 1.160753,0.816399 0.349923,0.300612 0.662975,0.61981 0.937689,0.954322 0.273816,0.336885 0.502176,0.686392 0.683606,1.045248 l -1.528757,1.330384 z"
     style="fill:#f2f2f2" /></svg>